<svg width="270" height="55" viewBox="0 0 270 55" fill="none" xmlns="http://www.w3.org/2000/svg"><path d="M74.7805 16.4558C74.5707 7.77191 67.2989 0.936401 58.5938 0.936401H0V6.20253C0 9.06229 2.34235 11.3989 5.20911 11.3989H58.7336C61.6703 11.3989 64.1874 13.6309 64.3273 16.5604C64.4671 19.6643 61.9849 22.245 58.9084 22.245H5.06927C2.27243 22.245 0 24.5119 0 27.3019V48.9593C0 51.7493 2.27243 54.0162 5.06927 54.0162H58.5938C67.2989 54.0162 74.5707 47.1807 74.7805 38.4968C74.8853 34.2421 73.3121 30.3709 70.6551 27.4763C73.3121 24.5817 74.8853 20.7105 74.7805 16.4558ZM58.6986 43.5886H10.4881V32.7424H58.8734C61.95 32.7424 64.4671 35.3232 64.2923 38.4271C64.1525 41.3217 61.6353 43.5886 58.6986 43.5886Z" fill="#D12727"></path><path d="M221.824 54.0511H264.896C267.728 54.0511 270 51.7843 270 48.9594V43.5886H221.824C212.909 43.5886 205.708 36.3695 205.708 27.5112C205.708 18.6181 212.944 11.4338 221.824 11.4338H264.966C267.728 11.4338 270 9.20185 270 6.41184V0.971336H221.824C207.141 0.971336 195.219 12.8637 195.219 27.5112C195.219 42.1588 207.106 54.0511 221.824 54.0511Z" fill="#D12727"></path><path d="M138.024 9.93417C134.773 4.31929 128.969 0.936401 122.467 0.936401C115.964 0.936401 110.161 4.28441 106.909 9.93417L81.528 54.0511H90.7226C92.5056 54.0511 94.1488 53.1095 95.0577 51.5401L115.999 15.1305C117.328 12.8288 119.67 11.4338 122.292 11.3989C125.054 11.3292 127.606 12.8985 129.004 15.3049L149.841 51.5401C150.715 53.0746 152.393 54.0511 154.176 54.0511H163.37L138.024 9.93417Z" fill="#D12727"></path><path d="M179.767 54.0511H174.383V6.02816C174.383 3.20328 176.656 0.936401 179.487 0.936401H184.871V48.9245C184.871 51.7493 182.599 54.0511 179.767 54.0511Z" fill="#D12727"></path></svg>