<svg width="270" height="86" viewBox="0 0 270 86" fill="none" xmlns="http://www.w3.org/2000/svg"><path d="M181.35 65.2575C178.25 65.2575 175.613 64.1553 173.435 61.9514C171.259 59.7474 170.169 57.0795 170.169 53.9434V51.4455H265.419V33.666H170.169V31.315C170.169 28.181 171.259 25.511 173.435 23.307C175.614 21.103 178.25 20.0009 181.35 20.0009H270.789V2.36851L181.35 2.22141C177.379 2.22141 173.653 2.98141 170.169 4.49894C166.685 6.01892 163.657 8.09896 161.094 10.7437C158.528 13.3887 156.497 16.4741 154.997 20.0006C153.495 23.5271 152.745 27.2993 152.745 31.3147V53.9431C152.745 57.961 153.495 61.7307 154.997 65.2572C156.497 68.7837 158.528 71.8465 161.094 74.4408C163.657 77.0376 166.685 79.0945 170.169 80.6123C173.653 82.1323 177.379 82.8898 181.35 82.8898H270.789V65.2575H181.35ZM17.2774 82.8901V26.907L63.7416 81.1269C64.9021 82.4997 66.2311 83.5261 67.7336 84.2126C69.2334 84.8969 70.7833 85.2412 72.3806 85.2412C73.9778 85.2412 75.549 84.8969 77.0986 84.2126C78.6461 83.5261 80.0034 82.4997 81.1641 81.1269L127.626 26.907V82.8901H144.905V11.7725C144.905 9.12754 144.179 6.82713 142.727 4.86641C141.274 2.90813 139.506 1.53742 137.427 0.752096C135.344 -0.0307774 133.12 -0.202933 130.749 0.237808C128.376 0.678549 126.32 1.9275 124.578 3.98465L72.4517 64.8167L20.3271 3.98492C18.5851 1.9275 16.5276 0.678821 14.1566 0.237808C11.7834 -0.202933 9.55731 -0.0307774 7.47823 0.752096C5.39457 1.53742 3.63112 2.90786 2.17873 4.86641C0.726332 6.82713 0 9.12754 0 11.7725V82.8901H17.2774Z" fill="white"></path></svg>